<svg xmlns="http://www.w3.org/2000/svg" viewBox="0 0 256 256" width="24" height="24"><path d="M114.98 46.11c9.09-.33 17.97 1.49 27.05 1.29 4.78-.06 9.5.32 14.12 1.63 8.49 2.44 16.81 4.81 24.38 9.52 8.92 5.68 21.22 1.39 31.16 3 3.53.78 5.64 4.1 5.83 7.57.29 5.81-.15 12-1.05 17.75-.82 4.75-4.23 7.84-5.81 12.17.22 3.83 3.18 3.95 6.21 4.46 9.56 1.03 19.38 3.42 26.89 9.76 2.32 2.01 3.98 4.73 2.32 7.74-1.81 2.58-5.49 1.82-7.98.81-3.98-1.78-7.82-3.4-12.2-3.96 1.96 2.35 5.03 4.65 6.13 7.54.38 4.53-3.37 9.5-5.25 13.54-5.82-.6-11.27-2.92-17.08-3.15-.22 2.55 1.38 3.92 2.86 5.71 4.41 4.7 9.14 10.55 10.85 16.86.67 2.6-.52 4.78-2.82 6.01-2.97.49-5.78-2.26-7.47-4.39-2.85-3.79-5.61-7.55-9.09-10.8-6.73 4.19-12.42 9.38-16.98 15.88-4.71 6.3-7.16 13.36-11.05 20.09-2.1 3.75-4.31 7.13-5.68 11.24-1.72 5.07-2.14 10.11-5.44 14.52-5.09 6.82-12.69 10.42-20.89 11.99-7.47 1.64-15.51-.39-22.27-3.63-6.16-2.93-8.88-8.82-12.98-13.95-5.49-6.78-8.66-13.92-16.5-18.49-2.04 1.19-4.18 2.77-6.49 3.35-2.86-.31-5.59-1.6-8.54-1.75-3.23-.25-6.74.32-9.69-1.09-3.83-1.8-7.24-4.25-11.28-5.64-1.97-.9-5.07-1.56-6.19-3.56-3.43-6.02-5.89-12.43-6.62-19.35-.55-6.23-6.01-9.01-6.91-14.93-1.13-8.04-2.08-15.93-4.46-23.75-1.04-3.42-3.18-6.02-5.58-8.58-5.04-5.32-9.72-11-14.01-16.95-4.12-5.88-7.22-12.23-7.19-19.58-.06-4.76.99-10.72 4.45-14.25 3.71-3.53 9.52-3.42 14.3-3.35 11.96.52 23.92 2.67 35.8 4.09 5.47.63 9.65-1.88 14.43-4.07 5.59-2.74 11.32-5.13 17.37-6.69 7.95-2.04 15.03-4.6 23.35-4.61z" fill="#bebdbc"/><path d="M134.95 51.45c8.82-1.36 17.68.01 25.82 3.57 4.39 1.18 8.52 2.19 12.35 4.81 4.64 2.35 9.51 6.41 14.86 5.54 5.39-.58 10.62-1.28 16.07-.66 3.82.06 7.81.36 10.09 3.86.56 4.81.44 10.92-.39 15.7-.79 4.82-3.68 7.87-5.71 12.08-1.45 3.04-.41 7.38 2.58 9.1 5.33 2.36 10.59 1.88 16.04 3.9 5.19 1.96 10.14 4.24 14.56 7.65-6.11-1.72-11.95-7.51-18.22-6.29 1.11.66 2.24 1.3 3.38 1.92-3.48-.21-7.04-.46-10.51-.14-1.71.66-2.43 3.59-3.41 5.1 4.05 1.45 8.02 2.81 11.62 5.23-3.47-1.12-6.82-2.6-10.3-3.74-.77 2.91-1.44 5.84-2.12 8.77 2.66 1.01 5.28 2.09 7.76 3.49-2.46-.68-4.86-1.52-7.27-2.33-2.03 2.33-4.09 4.63-6.15 6.93.34 1.71.67 3.42 1.1 5.11-.59.12-1.18.25-1.77.38 3.19 3.38 6.38 6.68 8.81 10.69-2.47-2.5-4.9-5.06-7.32-7.61-2.88 1.11-5.66 2.19-8.09 4.16-6.3 5.14-11.79 11.16-16.27 17.95-3.56 5.22-5.68 10.91-8.8 16.34-2.36 4.25-5.04 7.83-6.48 12.52-1.69 5.27-2.19 10.49-5.91 14.88-3.79 4.31-9.44 7.17-14.94 8.6-3.6.89-7.11 1.88-10.83 1.2-5-.99-10.44-2.36-14.75-5.18-3.79-2.36-6.33-6.98-9.16-10.41-2.28-3.23-5.16-5.27-5.15-9.5-4.51-3.61-8.32-9.17-13.53-11.58-2.67-.31-5.42.39-8.01.94.63-2.55 1.31-5.08 2.02-7.6 3.45 3.17 7.71 4.91 10.86 8.37 2.84 2.94 5.35 5.9 8.84 8.14 5.21 4 9.07 8.88 13.63 13.44 2.82 2.96 7.1 3.94 10.88 5.18l.68.29c.74.39 1.53.55 2.38.49h.77c5.77 1.33 11.33.98 16.2-2.63l1.1-.7c1.66-1.03 2.96-2.61 4.19-4.1 2.69-3.15 5.11-6.13 2.65-10.32-11.99-3.68-22.42-.54-33.94 2.78-2.75-5.14-5.49-10.19-9.2-14.73-6.88-8.59-14.1-17.38-22.55-24.47-1.73-1.61-3.31-3.1-3.51-5.61-.19-4.3.98-8.71 1.42-12.98-7.92 4.84-12.78 12-17.49 19.76 3.45-7.96 8.56-15.11 15.55-20.35 3.86-2.32 3.97-8.33 5.52-12.3-7.39-.01-14.59 1.41-21.38 4.32-2.16 2.27-3.55 5.25-5.66 7.61-3.13-2.6-4.1-5.43-3.2-9.4 1.29-2.22 3.72-3.89 5.5-5.72-1.7.18-3.4.4-5.1.66 3.16-2 5.75-4.55 8.5-7.07 2.44-2.21 2.81-4.97 3.74-7.97-4.63.11-9.44.53-13.88 1.9-5.28 2.02-10.22 5.11-15.38 7.43 4.96-3.99 10.52-7.1 16.49-9.3 4.22-1.5 9-2.06 13.41-2.86.92-2.58 1.99-4.83 2.03-7.62.25-3.57-.48-7.92.91-11.25 1.71-2.78 5.52-4.37 8.15-6.19 2.52 1.16 4.44 2.65 7.38 2 7.52-1.68 15.19-1.28 22.65.48 1.43.25 3.09.88 4.53.56 2.33-1.81 3.95-4.58 5.85-6.82.62 4.04 1.55 7.6 3.35 11.27-2.88-.6-5.7-1.39-8.53-2.16-.69 2.38-1.42 4.75-2.1 7.14 3.97 1.18 6.19-.82 9.69-2.17 2.64-1.17 4.84.37 7.31 1.22-3.45.08-6.6.32-9.82 1.68.29 1.96.55 3.92.85 5.88 4.69-1.8 7.2-5.77 12.21-4.99-2.36 1.38-4.79 2.63-7.16 4.01.51.99 1.01 1.98 1.52 2.97 3.86-2.13 6.88-4.12 11.46-2.77-1.67 1.23-3.37 2.4-5.05 3.62 2.78.99 5.25 2.62 8.24 2.04 7.33-1.13 14.54-.83 20.97 3.21 1.86 1.67 3.72 3.33 5.49 5.09-1.85 2.47-4.32 4.64-5.66 7.38l-.36.66c-1.9 3.21-4.77 5.17-7.8 7.19-2.13.88-4.31 1.65-6.44 2.55 6.03 4.38 12.78 7.83 19.29 11.47 1.9-1.58 3.76-3.2 5.44-5.01 2.67-5.36 3.72-10.56 1.97-16.46-.75-4.04-2.38-7.15-4.95-10.32-2.32-2.13-4.24-4.29-7.68-4.14-1.1-2.25-1.76-4.75-3.04-6.89-2.16-1-4.52-1.56-6.75-2.38 1.85-.61 3.73-1.15 5.6-1.69-1.91-3.68-4.61-5.76-8.08-7.89 1.44-.37 2.88-.72 4.33-1.06-.25-2.32-.42-4.64-.42-6.98 1.95 2.52 3.42 5.96 6.74 6.92 5 .24 9.29-1.01 13.46-3.73 2.12-1.63 3.73-.31 5.98.16-.36 1.66-1.2 3.56-.91 5.26 1.05 2.86 3.72 5.2 4.46 8.13.4 3.87.17 7.79.51 11.67 2.81-.49 5.6-1.02 8.41-1.48-.31-1.73-.56-3.55-1.13-5.22-1.03-2.91-3.64-5.44-4.1-8.48-.44-2.88-.22-5.97.06-8.85.97 3.18 1.45 6.41 1.97 9.68 2.16-2.37 4.43-4.68 6.42-7.21 1.36-1.55.96-4.21 1.18-6.16.06-3.16 1.08-5.97 1.82-9-.3-1.32-.42-2.94-1.23-4.06a9.71 9.71 0 0 0-2.96-.77c-6.69.07-13.38.42-20.06.58-7 .9-13.4-6.43-19.51-8.88-2.02-.02-3.99.94-6.05.86-2.04-1.05-3.41-4-5.82-4.08-4.54-.52-9.1-.97-13.67-.99 3.58 2.55 6.55 5.17 9.47 8.46-.81 2.58-1.87 5.11-2.52 7.73.48 1.11 1.14 2.14 1.73 3.19-.23 1.39-.47 2.79-.73 4.18-1.04-1.47-2.25-2.92-3.05-4.54-.29-4.45-1.16-8.8-2.43-13.06-2.18-2.51-4.79-4.37-8.23-4.47-2.95-.09-5.22-1.96-8.1-2.19-3.41-.33-6.88-.53-10.3-.55-1.21 1.09-2.33 3.1-3.92 3.54-3.08-.35-5.46-1.95-8.45-1.47-5.83.99-11.65 2.48-17.19 4.57.12 1.44.25 2.88.37 4.33-3.14-.01-6.25-.35-9.38-.61.58 1.08 1.16 2.16 1.74 3.23-.98.47-1.96.95-2.94 1.43-.97-.75-1.94-1.52-2.9-2.28-2.42 1.16-5.25 3.11-8.01 2.81-6.37-.34-12.67-1.37-19.05-1.78-8.38-.64-16.73-3.86-25.07-3.74-3.02.01-6.4.87-7.65 3.94-1.57 3.61.06 8.53 1.33 12.06C17.09 87.75 22 95.31 28 102.01c4.83 5.92 9.87 11.75 14.24 18.02-1.98-1.41-3.87-2.93-5.62-4.62-.89-.93-1.75-1.89-2.62-2.83-.77-.15-2.1.08-2.7-.46-1.5-2.12-1.8-4.72-3.81-6.62-2.48-2.31-4.05-5.21-6.2-7.8-4.18-5.24-9.56-11.11-11.52-17.61-1.67-5.65-1.36-12.96 2.3-17.8 4.81-2.68 8.89-1.34 13.93-.83 9.29-.01 18.68 2.09 27.9 3.15 2.79.25 5.67 1.16 8.42.93 2.82-.07 5.52-1.98 8.21-2.95 4.03-1.5 7.75-3.6 11.65-5.38 4.83-2.23 9.66-2.84 14.86-4.31 4.45-1.26 8.78-2.54 13.37-3.22 8.43-1.01 16.34.55 24.54 1.77z"/><path d="M114.73 53.42c3.42.02 6.89.22 10.3.55 2.88.23 5.15 2.1 8.1 2.19 3.44.1 6.05 1.96 8.23 4.47 1.27 4.26 2.14 8.61 2.43 13.06.8 1.62 2.01 3.07 3.05 4.54.26-1.39.5-2.79.73-4.18-.59-1.05-1.25-2.08-1.73-3.19.65-2.62 1.71-5.15 2.52-7.73-2.92-3.29-5.89-5.91-9.47-8.46 4.57.02 9.13.47 13.67.99 2.41.08 3.78 3.03 5.82 4.08 2.06.08 4.03-.88 6.05-.86 6.11 2.45 12.51 9.78 19.51 8.88 6.68-.16 13.37-.51 20.06-.58 1.35 1.65 2.75 3.26 4.19 4.83-.74 3.03-1.76 5.84-1.82 9-.22 1.95.18 4.61-1.18 6.16-1.99 2.53-4.26 4.84-6.42 7.21-.52-3.27-1-6.5-1.97-9.68-.28 2.88-.5 5.97-.06 8.85.46 3.04 3.07 5.57 4.1 8.48.57 1.67.82 3.49 1.13 5.22-2.81.46-5.6.99-8.41 1.48-.34-3.88-.11-7.8-.51-11.67-.74-2.93-3.41-5.27-4.46-8.13-.29-1.7.55-3.6.91-5.26-2.25-.47-3.86-1.79-5.98-.16-4.17 2.72-8.46 3.97-13.46 3.73-3.32-.96-4.79-4.4-6.74-6.92 0 2.34.17 4.66.42 6.98-1.45.34-2.89.69-4.33 1.06 3.47 2.13 6.17 4.21 8.08 7.89-1.87.54-3.75 1.08-5.6 1.69 2.23.82 4.59 1.38 6.75 2.38 1.28 2.14 1.94 4.64 3.04 6.89l.7 1.59c-6.43-4.04-13.64-4.34-20.97-3.21-2.99.58-5.46-1.05-8.24-2.04 1.68-1.22 3.38-2.39 5.05-3.62-4.58-1.35-7.6.64-11.46 2.77-.51-.99-1.01-1.98-1.52-2.97 2.37-1.38 4.8-2.63 7.16-4.01-5.01-.78-7.52 3.19-12.21 4.99-.3-1.96-.56-3.92-.85-5.88 3.22-1.36 6.37-1.6 9.82-1.68-2.47-.85-4.67-2.39-7.31-1.22-3.5 1.35-5.72 3.35-9.69 2.17.68-2.39 1.41-4.76 2.1-7.14 2.83.77 5.65 1.56 8.53 2.16-1.8-3.67-2.73-7.23-3.35-11.27-1.9 2.24-3.52 5.01-5.85 6.82-1.44.32-3.1-.31-4.53-.56-7.46-1.76-15.13-2.16-22.65-.48-2.94.65-4.86-.84-7.38-2-2.63 1.82-6.44 3.41-8.15 6.19-1.39 3.33-.66 7.68-.91 11.25-.04 2.79-1.11 5.04-2.03 7.62-4.41.8-9.19 1.36-13.41 2.86-5.97 2.2-11.53 5.31-16.49 9.3 5.16-2.32 10.1-5.41 15.38-7.43 4.44-1.37 9.25-1.79 13.88-1.9-.93 3-1.3 5.76-3.74 7.97-2.75 2.52-5.34 5.07-8.5 7.07 1.7-.26 3.4-.48 5.1-.66-1.78 1.83-4.21 3.5-5.5 5.72-.9 3.97.07 6.8 3.2 9.4 2.11-2.36 3.5-5.34 5.66-7.61 6.79-2.91 13.99-4.33 21.38-4.32-1.55 3.97-1.66 9.98-5.52 12.3-6.99 5.24-12.1 12.39-15.55 20.35 4.71-7.76 9.57-14.92 17.49-19.76-.44 4.27-1.61 8.68-1.42 12.98.2 2.51 1.78 4 3.51 5.61 8.45 7.09 15.67 15.88 22.55 24.47 3.71 4.54 6.45 9.59 9.2 14.73 11.52-3.32 21.95-6.46 33.94-2.78 2.46 4.19.04 7.17-2.65 10.32-2.79-.11-4.3 1.27-4.19 4.1l-1.1.7c-5.23 2.15-10.63 2.41-16.2 2.63h-.77c.33-1.88-1.84-2.2-2.38-.49l-.68-.29c-2.63-1.35-5.46-2.46-7.91-4.12-5.71-4.26-10.13-11.52-16.6-14.5-3.49-2.24-6-5.2-8.84-8.14-3.15-3.46-7.41-5.2-10.86-8.37-.71 2.52-1.39 5.05-2.02 7.6-.72.15-1.44.3-2.16.46-.74-1.29-1.49-2.58-2.2-3.88-.95-1.8-1.85-3.62-2.86-5.39a57.27 57.27 0 0 0-2.37 3.6c-1.96 2.16-3.17 3.02-6.2 3.07-1.6-.75-3.22-1.47-4.88-2.09-1.39-2.11-2.44-4.39-3.42-6.72l-.72.56-.62.39c-1.17-1.44-1.73-1.32-1.68.35l-.84-.11c-1.34-.2-2.67-.39-4-.6-.83-3.88-2.69-7-4.88-10.24-2.38-3.11-.19-6.21-.94-9.98-1-4.46-6.09-7.63-7.24-11.98-.62-4.07-.54-8.16-1.63-12.17-1-5.11-3.54-9.1-1.64-14.29 1.75 1.69 3.64 3.21 5.62 4.62-4.37-6.27-9.41-12.1-14.24-18.02-6-6.7-10.91-14.26-14.39-22.56-1.27-3.53-2.9-8.45-1.33-12.06 1.25-3.07 4.63-3.93 7.65-3.94 8.34-.12 16.69 3.1 25.07 3.74 6.38.41 12.68 1.44 19.05 1.78 2.76.3 5.59-1.65 8.01-2.81.96.76 1.93 1.53 2.9 2.28.98-.48 1.96-.96 2.94-1.43-.58-1.07-1.16-2.15-1.74-3.23 3.13.26 6.24.6 9.38.61-.12-1.45-.25-2.89-.37-4.33 5.54-2.09 11.36-3.58 17.19-4.57 2.99-.48 5.37 1.12 8.45 1.47 1.59-.44 2.71-2.45 3.92-3.54z" fill="#f0f5fa"/><path d="M116.51 54.9c-1.16 7.55 3.41 12.83 3.84 20.1.26 1.79-2.24 3-3.42 4.02-.33-1.33-.67-2.65-1-3.97-1.5.2-2.99.42-4.49.62.24-3.38 1.45-6.38 2.32-9.59-.21-2.36-1.05-4.67-1.24-7.04.38-1.73 2.75-2.96 3.99-4.14zM137.83 59.76c.8 1.54 1.51 3.13 2.2 4.73-1.4.09-2.81.18-4.21.25-.21-1.11-.44-2.25-.52-3.39.81-.57 1.65-1.11 2.53-1.59zM161.39 63.88c1.87.25 3.84.4 5.65.96 3.12 2.75 4.37 4.78 3.4 9 1.23 1.1 2.44 2.21 3.63 3.36-2.46 2.7-5.55 2.84-8.86 3.75.31-2.57 1.03-5.23.9-7.82-1.29-3.22-3.46-5.99-4.72-9.25zM87.14 65.1c2.02-.06 3.07.67 4.6 1.88-1.22.31-2.45.57-3.68.79-.52-.77-.83-1.66-.92-2.67zM85.53 66.88c-1.15 1.21-1.65 3.13-3.57 2.97-2.05.14-2.59-.94-2.9-2.76 2.16-.74 4.25-.44 6.47-.21z"/><path d="M204 67.18c1.05.11 2.04.36 2.96.77.81 1.12.93 2.74 1.23 4.06-1.44-1.57-2.84-3.18-4.19-4.83z" fill="#f0f5fa"/><path d="M22.89 68.15c5.26.59 10.44 2.25 15.57 3.51 6.91 2.16 13.91 3.97 20.65 6.58-3.28.22-6.57.41-9.85.61.72 1.44 1.44 2.89 2.15 4.33-3.56.9-7.14 1.69-10.66 2.7 2.52 1.19 5.06 2.34 7.53 3.64-3.94 3.24-8.59 4.11-11.84 7.96 3.65.5 7.27.37 10.94.31-.63 3.62-1.29 7.21-2.36 10.72C33.65 102.7 23.26 93.3 19 80.98c-1.03-2.91-2.46-6.56-1.83-9.66.77-2.54 3.27-3.41 5.72-3.17z"/><path d="M210.97 68.7c1.26-.68 1.47 4.5-.01 3.83-.87-.89-.73-2.9.01-3.83z" fill="#bebdbc"/><path d="M200.05 69.74c2.67-.36 4.45.93 6.55 2.31-3.35.37-6.78.06-10.11.57-2.3 1.09-4.3 2.82-6.47 4.17-1.4-1.95-2.77-3.92-4.12-5.91 4.75-.15 9.43-.72 14.15-1.14z"/><path d="M210.55 75.94c.19 3 .23 6 .35 9.01l-1.07-.01c.26-3 .43-6.01.72-9z" fill="#f0f5fa"/><path d="M148.42 78.46a7.3 7.3 0 0 1 2.34-.16c.66 3.43-.13 3.89-3 5.55-1.66-1.21-1.03-4.79.66-5.39z"/><path d="M99.77 84.62c5.67-.19 12.33-.97 17.73 1.02 1.72 1.52.93 4.14.26 6-1.81 4.54-8.4 5.76-12.54 4.35-4.49-2.2-4.57-7.07-5.45-11.37z" fill="#65686b"/><path d="M114.19 86.17c-.29.85-.59 1.7-.9 2.54-1.19-.19-2.38-.36-3.57-.51.63 1.5 1.37 2.94 2.08 4.39l-.55 1.44c-3.65-1.32-5.42-2.79-7.51-6.07 3.23-2.87 6.51-2.05 10.45-1.79z"/><path d="M91.84 86.66c.34 3.01.26 6.05.57 9.05.71 4 4.43 6.63 7.73 8.5 4.59.69 9.45.59 13.68-1.51 2.82-1.33 5.44-2.22 8.62-2.21-1.76 4.06-6.58 5.14-10.09 7.83-2.23 1.14-4.29 3.98-6.98 2.51-6.36-2.47-12.99-3.31-19.71-4.17.76-5.47.34-10.93.7-16.41.1-2.41 3.74-2.86 5.48-3.59z" fill="#f0f5fa"/><path d="M109.72 88.2c1.19.15 2.38.32 3.57.51-.48 1.3-.98 2.59-1.49 3.88-.71-1.45-1.45-2.89-2.08-4.39z" fill="#f0f5fa"/><path d="M179.43 87.97c-.28 2.31-.3 5.05-1.37 7.16-1.57 1.99-4.13 1.76-6.31 1.15-2.3-.69-3.08-3.08-4.22-4.94 1.2-.79 2.41-1.58 3.62-2.37.04 3.35.3 4.5 2.61 7.02.93-.72 1.84-1.45 2.74-2.2.48-2.23.68-2.71-1.01-4.37 1.29-.54 2.62-.99 3.94-1.45z" fill="#65686b"/><path d="M175.49 89.42c1.69 1.66 1.49 2.14 1.01 4.37-1-.73-2-1.48-3-2.23.65-.73 1.31-1.45 1.99-2.14zM204.9 92.24l-.09 3.31c-1.04.05-2.08.11-3.12.16 1.08-1.15 2.14-2.31 3.21-3.47z" fill="#f0f5fa"/><path d="M187.66 94.94c1.81 4.84 4.25 8.65 3.83 14.11-3.2 1.24-6.37 2.51-9.52 3.87-2.42-3.29-5.21-6.23-7.93-9.25 4.03-.08 7.62.07 10.94-2.62 1.8-1.36 2.02-4.08 2.68-6.11z" fill="#f0f5fa"/><path d="M205.26 101.54c1.45-.39 1.35 2.27.56 2.87-1.4.38-1.37-2.29-.56-2.87zM122.94 104.28c4.64 1.14 8.75 1.13 13.49.91-4.55.88-8.94.16-13.49.14-3.15.49-6.19 2.28-9.1 3.54 2.55-1.76 5.98-4.39 9.1-4.59z" fill="#f0f5fa"/><path d="M122.94 105.33c4.55.02 8.94.74 13.49-.14l1.87-.05c-.94 1.38-1.81 2.81-2.62 4.27 1.39 2.69 2.99 5.3 4.21 8.07.67 2.22 1.1 5.04 3.05 6.52 2.55 2.1 5.71 3.68 8.69 5.08 1.05.93 1.84 2.25 2.63 3.4-4.42.51-8.73-.36-13.14-.29-3.72.41-7.34 1.56-11.08 2.04-1.32-.74-2.39-.49-3.21.75l-.78-.07c-1.07-.26-1.72.17-1.97 1.28-3.42.86-7.91 2.25-11.36 1.11-3.45-1.54-7.81-4.76-7.54-8.99 2.36-1.22 2.43-3.52-.04-4.65-.08-5.59 4.48-11.48 8.7-14.79 2.91-1.26 5.95-3.05 9.1-3.54z" fill="#f0f5fa"/><path d="M138.3 105.14l1.8-.06a82.07 82.07 0 0 1-4.42 4.33c.81-1.46 1.68-2.89 2.62-4.27zM148.03 106.97c7.59-.91 15.42-.62 22.54 2.41-8.15-1.12-16.4-1.14-24.62-.8.66 1.43 1.34 2.84 1.98 4.28-2.79-.81-5.27-1.73-7.51-3.63 2.45-1.11 4.92-1.97 7.61-2.26zM171.68 107.21c3.44-.15 5.36 2.01 7.68 4.14-1.85 4.25-3.6 6.95-7.15 9.92 1.34-2.74 3.81-4.91 5.66-7.38-1.77-1.76-3.63-3.42-5.49-5.09l-.7-1.59z" fill="#f0f5fa"/><path d="M85.8 109.41c6.72.33 13.38 1.63 19.61 4.21-1.1.93-2.19 1.92-3.46 2.63-2.65.02-5.3-.49-7.96-.59-3.99-.24-7.65.47-11.59.88 1.07-2.4 2.15-4.82 3.4-7.13z" fill="#f0f5fa"/><path d="M218.55 110.22c1.01-1.46 3.07.2 1.42 1.25-1.08.13-1.55-.29-1.42-1.25z" fill="#bebdbc"/><path d="M193.66 110.81c1.66.01 3.66-.36 5.21.29 2.15.63 3.63 3.01 5.21 4.53-2.64-.21-5.23-.34-7.87-.12-.87-1.56-1.72-3.12-2.55-4.7z" fill="#f0f5fa"/><path d="M179.36 111.35c2.57 3.17 4.2 6.28 4.95 10.32-3.66 1.68-5.76 3.36-8.19 6.51l2.19.08 1.63-.5.74 1.36.32 1.81c-2.07.5-3.72 1.56-5.38 2.84 2.11.19 4.22.32 6.34.34.13 1.34.25 2.68.38 4.02-1.68 1.81-3.54 3.43-5.44 5.01-6.51-3.64-13.26-7.09-19.29-11.47 2.13-.9 4.31-1.67 6.44-2.55 3.88-1.49 6.69-2.87 7.8-7.19l.36-.66c3.55-2.97 5.3-5.67 7.15-9.92z" fill="#f0f5fa"/><path d="M191.75 111.96c.34 1.43.67 2.86.99 4.29-3.16.2-6.22.47-9.39.24.45-3.05 5.99-3.59 8.4-4.53z" fill="#f0f5fa"/><path d="M145.73 113.16c3.68 1.07 6.89 5.14 7.63 8.82-.28 2.11-2.26 2.4-3.82 3.39-.01-2.48 1-4.86-1.03-6.81-2.05-2.33-4.44-1.91-7.24-2.39 1.34-1.53 1.99-3.61 4.46-3.01zM160.38 113.2l1.61.19c1.29 6.15-1.73 10.65-4.79 15.6 1.87-5.24 2.46-10.33 3.18-15.79z" fill="#f0f5fa"/><path d="M206.27 113.16c1.7-1.02 2.81 1.15 1.59 2.38-1.65.94-2.87-1.16-1.59-2.38z" fill="#bebdbc"/><path d="M112.35 114.18c1.42-.9 2.82 1.44.89 1.74-1.03-.33-1.32-.91-.89-1.74z"/><path d="M168.51 114.45c2.21-.4 4.25.04 6.37.62-4.44.58-6.73 2.1-10.08 4.78.99-1.83 1.96-4.18 3.71-5.4z" fill="#f0f5fa"/><path d="M110.12 117.16h.85l.43.7-.43.7h-.85l-.43-.7.43-.7z" fill="#bebdbc"/><path d="M84.04 118.2c5.5-1 11.32-.68 16.88-.41-1.76 2.46-3.5 4.93-5.12 7.48-7.73-.26-14.42 2.36-21.64 4.61.73-2.53 1.2-4.65 3.3-6.41 1.96-1.68 3.85-5.07 6.58-5.27z" fill="#f0f5fa"/><path d="M114.18 117.9c.55.68 1.09 1.38 1.62 2.08-3.07-.27-1.78 3.1.65 2.38-.49.57-2.18 2.06-2.48.64-1.24-1.87-.38-3.23.21-5.1zM139.89 117.48c1.06 2.03 1.83 4.56 3.74 5.91 2.61 2.05 5.51 3.43 8 5.69-2.98-1.4-6.14-2.98-8.69-5.08-1.95-1.48-2.38-4.3-3.05-6.52z" fill="#f0f5fa"/><path d="M195.7 117.59c.26 2.58.53 5.16.74 7.74-3.38.06-6.76.06-10.14-.05-.37-2.25-.78-4.48-1.27-6.7 3.55-.51 7.08-.93 10.67-.99zM196.82 117.56c2.61.06 5.22.14 7.82.27-.46 2.52-1.98 8.68-5.59 7.6-1.08-2.45-1.63-5.27-2.23-7.87z" fill="#f0f5fa"/><path d="M208.37 118.12c.39 1-.06 3.17-1.34 3.32-1.68-.58-.24-4.59 1.34-3.32z" fill="#f0f5fa"/><path d="M52.92 120.19c2.11.01 4.2.22 6.22.84.68 1.6-.47 3.82-.79 5.46-1.91-2.07-4.05-3.93-5.43-6.3zM115.8 119.98c.74.82.96 1.61.65 2.38-2.43.72-3.72-2.65-.65-2.38zM108.52 121.15c1.24-1.24 3.3.35 2.39 1.86-1.29 1.25-3.22-.32-2.39-1.86zM48.9 120.95c.81.7 1.6 1.43 2.36 2.2.02 2.44 1.1 4.52-2.35 4.44-3.09-1.56-.64-4.26-.01-6.64z"/><path d="M171.85 121.93c-1.11 4.32-3.92 5.7-7.8 7.19 3.03-2.02 5.9-3.98 7.8-7.19z" fill="#f0f5fa"/><path d="M184.31 121.67c1.75 5.9.7 11.1-1.97 16.46-.13-1.34-.25-2.68-.38-4.02-2.12-.02-4.23-.15-6.34-.34 1.66-1.28 3.31-2.34 5.38-2.84 1.25.16 1.95-.18 2.11-1.04-.44-.85-1.25-1.1-2.43-.77l-.74-1.36c-1.07-1.42-1.62-1.25-1.63.5l-2.19-.08c2.43-3.15 4.53-4.83 8.19-6.51z" fill="#bebdbc"/><path d="M206.24 122.4c1.5.09 1.2 2.27.1 2.77-1.33.14-1.13-2.47-.1-2.77zM105.14 123.66c2.47 1.13 2.4 3.43.04 4.65a80.11 80.11 0 0 1-.04-4.65z" fill="#f0f5fa"/><path d="M109.58 126.25c.59-.9 3.07-1.04 2.76.46-.56.94-3.08 1.01-2.76-.46zM179.94 127.76l-1.63.5c.01-1.75.56-1.92 1.63-.5z"/><path d="M186.43 127.07c3.09-.74 6.51-.48 9.68-.53.49 3.17 1.17 6.28 1.97 9.39-3.87-1.93-7.95-3.35-11.83-5.25.01-1.21.07-2.41.18-3.61z" fill="#f0f5fa"/><path d="M116.99 128.04v3.11c-1.74-.44-3.49-.88-5.22-1.34 1.73-.61 3.47-1.2 5.22-1.77z" fill="#bebdbc"/><path d="M180.68 129.12c1.18-.33 1.99-.08 2.43.77-.16.86-.86 1.2-2.11 1.04l-.32-1.81zM57.09 129.52c1.6-.11 3.46.77 3.59 2.55-.75 2.38-2 4.61-3.04 6.87-1.02-.86-2.13-1.72-2.98-2.74-.93-2.26-.08-5.81 2.43-6.68z"/><path d="M108.27 129.97l.71-.42.71.42-.01.84-.7.42-.71-.42v-.84z" fill="#bebdbc"/><path d="M203.34 129.8c2.9-1.49.24 4.77-1.39 3.8-.45-1.12.72-2.93 1.39-3.8z" fill="#f0f5fa"/><path d="M42.15 132.29c1.61.44 3.19 1.11 4.74 1.75-2.14.7-4.31 1.08-6.54 1.33.56-1.05 1.16-2.08 1.8-3.08z"/><path d="M186.91 132.56c3.45 1.34 7.16 2.66 10.22 4.77.6 2.11-.45 3.52-1.93 4.88-3.67 3.25-7.57 6.24-11.25 9.5-5.95 3.29-7.85 8.69-10.88 14.36-3.37 6.09-6.76 12.19-10.18 18.26-.8-.78-1.6-1.56-2.41-2.33-.08-.94-.15-1.87-.21-2.81.86-1.31.71-2.41-.46-3.31l.24-.71c3.49-6.15 5.51-12.9 8.85-19.11 1.9-3.72 3.57-7.51 6.02-10.93 1.69 2.64 3.27 5.28 5.51 7.51a72.422 72.422 0 0 0-3.55-6.83c2.32-1.35 4.56-2.54 6.25-4.7 1.88-2.35 2.66-5.76 3.78-8.55z" fill="#f0f5fa"/><path d="M130.04 134.23c-.94.97-2.01 1.22-3.21.75.82-1.24 1.89-1.49 3.21-.75zM126.05 134.91c-.27.98-.92 1.41-1.97 1.28.25-1.11.9-1.54 1.97-1.28z" fill="#f0f5fa"/><path d="M54.49 141.05c-1.1 3.57-3.25 6.86-4.96 10.17-1.33-.85-2.83-1.69-3.93-2.82-.75-3.65-.26-7.63-.09-11.32 4.08-1.38 7.14.25 8.98 3.97zM73.1 135.77c.91 1.42 1.75 2.6 1.78 4.36-2.68.31-3.08 0-4.75-2.09.97-.79 1.96-1.54 2.97-2.27z"/><path d="M124.79 137.92c2.87.92 6.37 1.1 7.88 4.08-.91 1.81-1.85 3.84-4.16 2.37-3.65-2.06-7.03-2.87-11.16-3.52 1.89-2.1 4.54-3.71 7.44-2.93zM141.56 138.38c1.59 2.13.4 4.78-.31 7.01-2.12 4.9-4.6 9.48-8.49 13.22.03-6.22-.43-12.92.74-19.02 2.13-1.26 5.81-3 8.06-1.21zM202.18 138.26l.57.01v.57l-.57-.01v-.57zM144.16 140.27c5.53-1.87 12.31.28 18.11.23-.58 2.49-1.37 4.41-2.8 6.55-.6-1.34-1.17-2.68-1.73-4.04-.9.98-1.81 1.95-2.73 2.91-.88-1.03-1.73-2.07-2.59-3.11-.79 1.16-1.58 2.33-2.4 3.48-.54-1.11-1.06-2.21-1.59-3.32-.93.94-1.86 1.86-2.79 2.78-.68-1.8-1.4-3.52-1.48-5.48zM170.99 141.81c-2.21 6.16-4.96 12.89-9.51 17.71-.23-6.41 1.2-12.93 2.13-19.26 2.98-.26 4.74.11 7.38 1.55z" fill="#f0f5fa"/><path d="M60.07 141.53c2.05-.32 3.95 1.43 5.68 2.36-1.58 3.92-3.11 7.72-5.92 10.97-1.65-2.23-3.48-4-3.44-6.97-.12-2.78 1.13-5.13 3.68-6.36z"/><path d="M200.05 141.63c-2.06 3.01-4.52 5.68-7.56 7.72 1.64-3.41 4.43-5.73 7.56-7.72z" fill="#bebdbc"/><path d="M70.2 142.78c2.23-1.31 6.51 2.17 5.47 4.82-1.05 1.78-3.11 3.05-4.69 4.31-1.15-3.14-3.54-6.07-.78-9.13z"/><path d="M174.46 143.99c.84.57 1.65 1.18 2.42 1.82 1.3 2.21 2.49 4.49 3.55 6.83-2.24-2.23-3.82-4.87-5.51-7.51-2.45 3.42-4.12 7.21-6.02 10.93-3.34 6.21-5.36 12.96-8.85 19.11 1.28-4.6 3.38-8.65 5.14-13.08 2.74-6.32 5.4-12.37 9.27-18.1z" fill="#f0f5fa"/><path d="M120.71 145.3c3.08.38 6.51 1.26 9.08 3.01.7 3.18.49 6.62 1.23 9.78.15 1.1.79 1.9 1.91 2.42 3.26-2.33 5.54-5.98 8.11-9.08 1.04 8.57 2.23 17.07 2.71 25.7.73-4.67 1.93-9.32 2.41-14.01-.39-5.07-5.21-10.38-4.39-15.8 3.93.2 7.8.59 11.7 1.09 2 4.85 4 9.33 4.25 14.67.39 5.73-1 12.4-4.75 16.88-4.14 4.23-9.2 3.63-14.62 3.65-1.86-3.3-3.66-6.63-5.56-9.91-1 2.09-1.97 4.2-3 6.29-5.17-4.95-5.55-11.07-8.68-17.11-2.56-5.08-5.58-9.89-7.95-15.07 2.33-1.14 4.86-2.89 7.55-2.51z" fill="#65686b"/><path d="M183.95 151.71c-2.85 3.05-5.65 5.99-7.52 9.78-4.64 9.03-9.78 17.78-14.68 26.67-.46-2.08-.98-4.07-1.27-6.16.81.77 1.61 1.55 2.41 2.33 3.42-6.07 6.81-12.17 10.18-18.26 3.03-5.67 4.93-11.07 10.88-14.36z" fill="#f0f5fa"/><path d="M65.08 152.89c.92-.48 1.99-.51 3.2-.09.52 2.64-1.4 4.61-3.49 5.88-.11-1.97-.27-3.86.29-5.79z"/><path d="M185.33 155.36c2.11.37-.87 3.94-2.04 3.13-.54-1.14.86-3 2.04-3.13z" fill="#bebdbc"/><path d="M59.35 156.58c.68 2.66.59 6.07-.05 8.74-.88 2.07-3.32 2.35-5.17 3.1-1.6-4.07-1.9-8.06.62-11.84 1.66-1.36 2.9-1.14 4.6 0z"/><path d="M108.86 160.6c1.5-.21 3-.33 4.5-.47 2.9 6.96 9.9 12.08 12.63 19.02 1.82 1.38 3.4 3.01 5.04 4.6-.37 1.19-.74 2.37-1.1 3.56-6.91-6.7-12.52-14.31-18.33-21.93-1.12-1.49-2.16-2.99-2.74-4.78zM181.31 159.69c2.79-.77 1.08 3.1-.78 1.88-.26-.69 0-1.32.78-1.88z" fill="#f0f5fa"/><path d="M63.85 161.69c.57 2.24.58 4.62 1.85 6.48.97 1.84 2.37 3.25 1.94 5.47-.17 1.76-1.27 2.42-2.71 3.17-2.65-1.93-1.15-5.9-1.59-8.74-.39-2.49-.76-4.05.51-6.38z"/><path d="M179.34 163.03c1.86-.13-.68 4.97-1.98 3.74-.79-1.26.78-3.32 1.98-3.74zM176.22 168.14c1.62-.07-.41 4.64-1.76 3.71-.54-1.18.63-3.22 1.76-3.71zM59.47 174.43l-1.68.35c-.05-1.67.51-1.79 1.68-.35z" fill="#bebdbc"/><path d="M175 172.65c-.77 2.2-1.77 4.02-3.25 5.83.63-2.41 1.6-4.02 3.25-5.83z" fill="#f0f5fa"/><path d="M59.47 174.43l.62-.39c-.21 1.63-.38 3.26-.58 4.88-1.16-.61-2.32-1.22-3.49-1.84.31-.8.62-1.61.93-2.41l.84.11 1.68-.35zM77.68 175.62c1.01 1.77 1.91 3.59 2.86 5.39-.47.79-.95 1.59-1.42 2.39-1.78.07-3.57.17-5.35.27.5-1.48.99-2.98 1.54-4.45a57.27 57.27 0 0 1 2.37-3.6z"/><path d="M159.81 175.88c1.17.9 1.32 2 .46 3.31-.86-1.03-1.02-2.14-.46-3.31z" fill="#bebdbc"/><path d="M132.92 176.74c1.87 2.99 3.58 6.29 4.53 9.7.92 2.72-2.13 4.7-3.62 6.53-.9-.94-1.69-1.95-2.39-3.02-.36-4.36.56-8.95 1.48-13.21zM158.02 176.46c1.64 4.75 1.86 9.67 1.63 14.65-1.69-.62-3.99-.32-4.53-2.41-.25-2.99.49-6.14 1.14-9.05.56-1.08 1.14-2.14 1.76-3.19z" fill="#f0f5fa"/><path d="M64.23 180.2c1.66.62 3.28 1.34 4.88 2.09.77.78 1.51 1.58 2.23 2.4-2.98-.84-5.48-1.65-7.11-4.49z"/><path d="M170.5 181.15c.49 1.04-1.28 4.46-2.62 3.68-.95-1.09 1.28-4.24 2.62-3.68zM145.01 184.91c.39 1.25.78 2.5 1.17 3.76.62-1.28 1.22-2.56 1.83-3.84.67.97 1.33 1.95 1.99 2.93.77-.66 1.54-1.32 2.32-1.97.28 1.6.55 3.2.8 4.8-4.53.39-9.15 1.06-13.71.9-.13-1.98.14-3.9.41-5.85.88 1.09 1.73 2.19 2.58 3.31.68-1.6 1.08-3.06 2.61-4.04z" fill="#f0f5fa"/><path d="M167.06 185.89c-1.2 3.26-2.67 6.48-4.23 9.59.34-3.67 2.09-6.69 4.23-9.59z" fill="#bebdbc"/><path d="M106.62 193.34c6.47 2.98 10.89 10.24 16.6 14.5 2.45 1.66 5.28 2.77 7.91 4.12-3.78-1.24-8.06-2.22-10.88-5.18-4.56-4.56-8.42-9.44-13.63-13.44zM162.27 196.64c1.62-.46 1.75 2.45.06 2.06-.72-.65-.74-1.34-.06-2.06z" fill="#f0f5fa"/><path d="M161.18 200.55c1.67-.97 2.82 1.18 1.57 2.39-1.7 1.09-2.77-1.19-1.57-2.39z" fill="#bebdbc"/><path d="M156.45 205.31c-1.23 1.49-2.53 3.07-4.19 4.1-.11-2.83 1.4-4.21 4.19-4.1zM159.41 205.13c1.71-1.37 2.13 1.19.46 1.69-.89-.09-1.05-.65-.46-1.69zM151.16 210.11c-4.87 3.61-10.43 3.96-16.2 2.63 5.57-.22 10.97-.48 16.2-2.63z" fill="#f0f5fa"/><path d="M154.18 210.3c1.68-1.17 2.39 1.15.62 1.64-1.01-.18-1.21-.73-.62-1.64z" fill="#bebdbc"/><path d="M134.19 212.74c-.85.06-1.64-.1-2.38-.49.54-1.71 2.71-1.39 2.38.49z" fill="#f0f5fa"/><path d="M153.5 211.86c-1.82 1.55-3.63 2.62-5.93 3.32 1.86-1.57 3.62-2.55 5.93-3.32zM122.22 213.26l.57.01v.57h-.58l.01-.58z" fill="#bebdbc"/><path d="M146.07 214.31l.82-.05.45.7-.37.73-.83.05-.45-.7.38-.73z"/><path d="M143.09 215.29c1.77-1.15 3.15 1.32.93 1.88-1.23-.28-1.54-.91-.93-1.88zM131.39 216.37c3.38-.04 6.79-.03 10.14.34-2.91.83-5.89.81-8.9.67l-1.24-1.01z" fill="#bebdbc"/></svg>