<svg preserveAspectRatio="none" viewBox="0 0 1000 100" xmlns="http://www.w3.org/2000/svg"><g fill="#000"><path class="svg-white-bg" d="M0 0h1000v100h-1000v-100zm0 0v100h1000v-100c-97.189 43.255-209.63 65.841-337.325 67.759-191.542 2.876-261.489-55.759-323.21-55.759-61.721 0-62.23 39.818-162.093 39.818-66.575 0-125.699-17.273-177.372-51.818z"/><path class="svg-white-bg" d="M1000 52.015v-52.015h-1000v51.5-48.5c19.077 12.006 33.649 20.763 43.716 26.27 40.874 22.363 85.618 33.544 134.233 33.544 99.863 0 100.139-46.412 161.859-46.412 61.721 0 169.387 68.597 321.781 68.597 109.03 0 221.834-26.989 338.411-80.968v47.985z" fill-opacity=".6"/><path class="svg-white-bg" d="M0 0h1000v100h-1000v-100zm0 7v93h1000v-90c-114.576 52.931-227.243 79.396-338 79.396-166.135 0-262.565-69.396-324.285-69.396-61.721 0-61.512 49.62-161.375 49.62-66.575 0-125.355-20.873-176.34-62.62z" fill-opacity=".2"/></g></svg>