<svg class="mesmerize" preserveAspectRatio="none" width="1000" height="100" viewBox="0 0 1000 100" xmlns="http://www.w3.org/2000/svg"><desc>Created with Sketch.</desc><g fill="#000"><path class="svg-white-bg" d="M-1.767 100c19.303-48.622 66.771-83 122.267-83 44.259 0 83.411 21.865 107.244 55.383 14.982-16.223 36.432-26.383 60.256-26.383 29.334 0 55.071 15.403 69.563 38.563 22.468-40.303 65.519-67.563 114.937-67.563 46.318 0 87.043 23.947 110.469 60.136 6.908-4.513 15.163-7.136 24.031-7.136 10.97 0 21.002 4.014 28.708 10.654 8.394-29.251 35.344-50.654 67.292-50.654 11.375 0 22.116 2.713 31.611 7.527 14.667-16.865 36.283-27.527 60.389-27.527 35.572 0 65.722 23.217 76.122 55.324 14.276-12.057 32.728-19.324 52.878-19.324 35.454 0 65.652 22.5 77.095 54h-1002.862z"/><path class="svg-white-bg" d="M-1.767 100c18.07-48.622 62.503-83 114.453-83 41.43 0 78.08 21.865 100.39 55.383 14.024-16.223 34.104-26.383 56.405-26.383 27.459 0 51.551 15.403 65.117 38.563 21.032-40.303 61.332-67.563 107.591-67.563 43.358 0 81.48 23.947 103.409 60.136 6.467-4.513 14.194-7.136 22.495-7.136 10.269 0 19.66 4.014 26.873 10.654 7.857-29.251 33.085-50.654 62.992-50.654 10.648 0 20.702 2.713 29.591 7.527 13.73-16.865 33.964-27.527 56.529-27.527 33.299 0 61.521 23.217 71.257 55.324 13.364-12.057 30.637-19.324 49.498-19.324 33.188 0 61.456 22.5 72.168 54h-938.767z" fill-opacity=".6"/><path class="svg-white-bg" d="M14 100c19-50.783 65.721-86.689 120.345-86.689 43.563 0 82.1 22.837 105.558 57.844 14.746-16.944 35.86-27.556 59.309-27.556 28.873 0 54.205 16.088 68.469 40.277 22.115-42.094 64.489-70.565 113.13-70.565 45.59 0 85.675 25.011 108.733 62.808 6.8-4.713 14.925-7.453 23.653-7.453 10.797 0 20.672 4.193 28.256 11.128 8.262-30.551 34.788-52.906 66.234-52.906 11.196 0 21.768 2.834 31.114 7.862 14.436-17.615 35.712-28.751 59.439-28.751 35.013 0 64.688 24.249 74.925 57.783 14.052-12.593 32.214-20.183 52.047-20.183 34.896 0 64.62 23.5 75.883 56.4h-987.095z" fill-opacity=".2"/></g></svg>