<svg preserveAspectRatio="none" viewBox="0 0 1000 100" xmlns="http://www.w3.org/2000/svg"><g fill="#000"><path class="svg-white-bg" d="M1000 75.291v-75.291h-1000v75.291-24.709c50.292 15.873 94.979 23.809 134.063 23.809 160.18 0 189.492-54.182 308.938-54.182 119.445 0 181.541 74.304 377.394 74.935 76.087.245 135.955-14.609 179.606-44.563v24.709z" fill-opacity=".2"/><path class="svg-white-bg" d="M1000 63.973v-63.973h-1000v60.826-39.174c33.432 32.916 78.986 49.375 136.66 49.375 160.18 0 186.895-61.035 306.34-61.035 117.359-.152 223.758 80.344 376.938 83.09 76.087.245 136.107-21.467 180.063-65.137v36.027z" fill-opacity=".6"/><path class="svg-white-bg" d="M1000 58.75v-58.75h-1000v50.541-49.459c28.932 45 74.518 67.5 136.758 67.5 160.18 0 158.211-67.5 306.707-67.5 128.447 0 255.178 91.772 376.555 89.852 64.97-1.896 124.964-26.374 179.98-73.434v41.25z"/></g></svg>