<svg class="mesmerize" preserveAspectRatio="none" width="1000" height="100" viewBox="0 0 1000 100" xmlns="http://www.w3.org/2000/svg"><desc>Created with Sketch.</desc><g fill="#000"><path class="svg-white-bg" d="M0 50.582c50.292 15.873 94.979 23.809 134.063 23.809 160.18 0 189.492-54.182 308.938-54.182 119.445 0 181.541 74.304 377.394 74.935 76.087.245 135.955-14.609 179.606-44.563v49.5h-1000v-49.5z"/><path class="svg-white-bg" d="M0 21.652c33.432 32.916 78.986 49.375 136.66 49.375 160.18 0 186.895-61.035 306.34-61.035 117.359-.152 223.758 80.344 376.938 83.09 76.087.245 136.107-21.467 180.063-65.137v72.136h-1000v-78.429z" fill-opacity=".5"/><path class="svg-white-bg" d="M0 1.082c28.932 45 74.518 67.5 136.758 67.5 160.18 0 158.211-67.5 306.707-67.5 128.447 0 255.178 91.772 376.555 89.852 64.97-1.896 124.964-26.374 179.98-73.434v82.582h-1000v-99z" fill-opacity=".3"/></g></svg>