<svg class="mesmerize" preserveAspectRatio="none" width="1000" height="100" viewBox="0 0 1000 100" xmlns="http://www.w3.org/2000/svg"><desc>Created with Sketch.</desc><g fill="#000"><path class="svg-white-bg" d="M0 55.618c23.284-11.745 47.895-17.618 73.832-17.618 61.055 0 76.965 40.185 155.152 40.185 78.187 0 119.68-54.185 192.375-54.185s149.218 76 272.762 76c123.544 0 137.777-62 206.441-62 27.195 0 60.341 11.656 99.438 34.968v27.032h-1000v-44.382z"/><path class="svg-white-bg" d="M0 49.89c23.599-18.351 48.367-27.527 74.305-27.527 61.055 0 78.199 49.957 156.387 49.957 78.187 0 115.984-61.984 188.68-61.984 72.695 0 146.303 85.664 269.848 85.664 123.544 0 133.303-71.637 209.916-71.637 30.486-1.333 64.107 12.992 100.865 42.977v32.66h-1000v-50.11z" fill-opacity=".7" opacity=".7"/><path class="svg-white-bg" d="M0 42.89c23.599-23.685 48.367-35.527 74.305-35.527 61.055 0 78.199 59.957 156.387 59.957 78.187 0 115.984-64.984 188.68-64.984 72.695 0 146.303 86.664 269.848 86.664 123.544 0 133.303-78.637 209.916-78.637 37.967 0 71.589 18.992 100.865 56.977v32.66h-1000v-57.11z" fill-opacity=".7" opacity=".2"/></g></svg>