<svg preserveAspectRatio="none" viewBox="0 0 1000 100" xmlns="http://www.w3.org/2000/svg"><g fill="#000"><path class="svg-white-bg" d="M0 0h1000v100h-1000v-100zm0 81.016v18.984h1000v-100l-314.645 69.043-274.238-39.625-184.691 51.123-112.488-68.736-113.938 69.211z"/><path class="svg-white-bg" d="M0 0h1000v100h-1000v-100zm0 81.016v18.984h1000v-89l-314.645 65.043-274.238-26.625-184.691 36.123-112.488-51.736-113.938 47.211z" fill-opacity=".6"/><path class="svg-white-bg" d="M0 0h1000v100h-1000v-100zm0 81.016v18.984h1000v-75.152l-314.547 58.777-273.908-19.438-185.119 26.354-113.289-35.486-113.137 25.961z" fill-opacity=".2"/></g></svg>